<?xml version="1.0" encoding="UTF-8" standalone="no"?>
<!DOCTYPE svg PUBLIC "-//W3C//DTD SVG 1.1//EN"
 "http://www.w3.org/Graphics/SVG/1.1/DTD/svg11.dtd">
<!-- Generated by graphviz version 2.40.1 (20161225.0304)
 -->
<!-- Title: oneDegreeRelationshipsDiagram Pages: 1 -->
<svg width="239pt" height="184pt"
 viewBox="0.00 0.00 239.00 184.20" xmlns="http://www.w3.org/2000/svg" xmlns:xlink="http://www.w3.org/1999/xlink">
<g id="graph0" class="graph" transform="scale(1 1) rotate(0) translate(4 180.2)">
<title>oneDegreeRelationshipsDiagram</title>
<polygon fill="#ffffff" stroke="transparent" points="-4,4 -4,-180.2 235,-180.2 235,4 -4,4"/>
<text text-anchor="middle" x="72.4936" y="-7.3" font-family="Helvetica,sans-Serif" font-size="11.00" fill="#000000">Generated by SchemaSpy</text>
<!-- goose_db_version -->
<g id="node1" class="node">
<title>goose_db_version</title>
<g id="a_node1"><a xlink:href="../../tables/goose_db_version.html" xlink:title="goose_db_version" target="_top">
<polygon fill="#ffffff" stroke="transparent" points="8,-38.2 8,-172.2 223,-172.2 223,-38.2 8,-38.2"/>
<polygon fill="#f5f5f5" stroke="transparent" points="10.5,-147.2 10.5,-170.2 221.5,-170.2 221.5,-147.2 10.5,-147.2"/>
<polygon fill="none" stroke="#000000" points="10.5,-147.2 10.5,-170.2 221.5,-170.2 221.5,-147.2 10.5,-147.2"/>
<text text-anchor="start" x="15.5" y="-155.8" font-family="Helvetica,sans-Serif" font-weight="bold" font-size="11.00" fill="#000000">goose_db_version</text>
<text text-anchor="start" x="186.5437" y="-155.3" font-family="Helvetica,sans-Serif" font-size="11.00" fill="#000000">[table]</text>
<polygon fill="none" stroke="#000000" points="10.5,-125.2 10.5,-147.2 137.5,-147.2 137.5,-125.2 10.5,-125.2"/>
<ellipse fill="#ede739" stroke="#ede739" rx="3.2" ry="3.2" cx="15.5" cy="-142.2"/>
<text text-anchor="start" x="30.5" y="-132.3" font-family="Helvetica,sans-Serif" font-size="11.00" fill="#000000">id</text>
<polygon fill="none" stroke="#000000" points="137.5,-125.2 137.5,-147.2 221.5,-147.2 221.5,-125.2 137.5,-125.2"/>
<text text-anchor="start" x="140.5" y="-132.9" font-family="Helvetica,sans-Serif" font-size="11.00" fill="#000000">serial[10]</text>
<polygon fill="none" stroke="#000000" points="10.5,-103.2 10.5,-125.2 137.5,-125.2 137.5,-103.2 10.5,-103.2"/>
<text text-anchor="start" x="30.5" y="-110.3" font-family="Helvetica,sans-Serif" font-size="11.00" fill="#000000">version_id</text>
<polygon fill="none" stroke="#000000" points="137.5,-103.2 137.5,-125.2 221.5,-125.2 221.5,-103.2 137.5,-103.2"/>
<text text-anchor="start" x="140.5" y="-110.9" font-family="Helvetica,sans-Serif" font-size="11.00" fill="#000000">int8[19]</text>
<polygon fill="none" stroke="#000000" points="10.5,-81.2 10.5,-103.2 137.5,-103.2 137.5,-81.2 10.5,-81.2"/>
<text text-anchor="start" x="30.5" y="-88.3" font-family="Helvetica,sans-Serif" font-size="11.00" fill="#000000">is_applied</text>
<polygon fill="none" stroke="#000000" points="137.5,-81.2 137.5,-103.2 221.5,-103.2 221.5,-81.2 137.5,-81.2"/>
<text text-anchor="start" x="140.5" y="-88.9" font-family="Helvetica,sans-Serif" font-size="11.00" fill="#000000">bool[1]</text>
<polygon fill="none" stroke="#000000" points="10.5,-59.2 10.5,-81.2 137.5,-81.2 137.5,-59.2 10.5,-59.2"/>
<text text-anchor="start" x="30.5" y="-66.3" font-family="Helvetica,sans-Serif" font-size="11.00" fill="#000000">tstamp</text>
<polygon fill="none" stroke="#000000" points="137.5,-59.2 137.5,-81.2 221.5,-81.2 221.5,-59.2 137.5,-59.2"/>
<text text-anchor="start" x="140.3807" y="-66.9" font-family="Helvetica,sans-Serif" font-size="11.00" fill="#000000">timestamp[29,6]</text>
<polygon fill="#ffffff" stroke="transparent" points="10.5,-40.2 10.5,-59.2 78.5,-59.2 78.5,-40.2 10.5,-40.2"/>
<polygon fill="none" stroke="#000000" points="10.5,-40.2 10.5,-59.2 78.5,-59.2 78.5,-40.2 10.5,-40.2"/>
<text text-anchor="start" x="13.5" y="-46.3" font-family="Helvetica,sans-Serif" font-size="11.00" fill="#000000">&lt; 0</text>
<polygon fill="#ffffff" stroke="transparent" points="78.5,-40.2 78.5,-59.2 137.5,-59.2 137.5,-40.2 78.5,-40.2"/>
<polygon fill="none" stroke="#000000" points="78.5,-40.2 78.5,-59.2 137.5,-59.2 137.5,-40.2 78.5,-40.2"/>
<text text-anchor="start" x="128.3862" y="-46.3" font-family="Helvetica,sans-Serif" font-size="11.00" fill="#000000"> &#160;</text>
<polygon fill="#ffffff" stroke="transparent" points="137.5,-40.2 137.5,-59.2 221.5,-59.2 221.5,-40.2 137.5,-40.2"/>
<polygon fill="none" stroke="#000000" points="137.5,-40.2 137.5,-59.2 221.5,-59.2 221.5,-40.2 137.5,-40.2"/>
<text text-anchor="start" x="202.9053" y="-46.3" font-family="Helvetica,sans-Serif" font-size="11.00" fill="#000000">0 &gt;</text>
<polygon fill="none" stroke="#000000" stroke-width="2" points="9,-39.2 9,-171.2 222,-171.2 222,-39.2 9,-39.2"/>
</a>
</g>
</g>
</g>
</svg>
