<?xml version="1.0" encoding="UTF-8" standalone="no"?>
<!DOCTYPE svg PUBLIC "-//W3C//DTD SVG 1.1//EN"
 "http://www.w3.org/Graphics/SVG/1.1/DTD/svg11.dtd">
<!-- Generated by graphviz version 2.40.1 (20161225.0304)
 -->
<!-- Title: oneDegreeRelationshipsDiagram Pages: 1 -->
<svg width="376pt" height="267pt"
 viewBox="0.00 0.00 376.00 266.70" xmlns="http://www.w3.org/2000/svg" xmlns:xlink="http://www.w3.org/1999/xlink">
<g id="graph0" class="graph" transform="scale(1 1) rotate(0) translate(4 262.7)">
<title>oneDegreeRelationshipsDiagram</title>
<polygon fill="#ffffff" stroke="transparent" points="-4,4 -4,-262.7 372,-262.7 372,4 -4,4"/>
<text text-anchor="middle" x="72.4936" y="-7.3" font-family="Helvetica,sans-Serif" font-size="11.00" fill="#000000">Generated by SchemaSpy</text>
<!-- link -->
<g id="node1" class="node">
<title>link</title>
<g id="a_node1"><a xlink:href="../../tables/link.html" xlink:title="link" target="_top">
<polygon fill="#ffffff" stroke="transparent" points="153,-76.7 153,-254.7 360,-254.7 360,-76.7 153,-76.7"/>
<polygon fill="#f5f5f5" stroke="transparent" points="155.5,-229.7 155.5,-252.7 358.5,-252.7 358.5,-229.7 155.5,-229.7"/>
<polygon fill="none" stroke="#000000" points="155.5,-229.7 155.5,-252.7 358.5,-252.7 358.5,-229.7 155.5,-229.7"/>
<text text-anchor="start" x="160.2517" y="-238.3" font-family="Helvetica,sans-Serif" font-weight="bold" font-size="11.00" fill="#000000">link</text>
<text text-anchor="start" x="323.5437" y="-237.8" font-family="Helvetica,sans-Serif" font-size="11.00" fill="#000000">[table]</text>
<polygon fill="none" stroke="#000000" points="155.5,-207.7 155.5,-229.7 266.5,-229.7 266.5,-207.7 155.5,-207.7"/>
<ellipse fill="#ede739" stroke="#ede739" rx="3.2" ry="3.2" cx="160.5" cy="-224.7"/>
<text text-anchor="start" x="175.5" y="-214.8" font-family="Helvetica,sans-Serif" font-size="11.00" fill="#000000">id</text>
<polygon fill="none" stroke="#000000" points="266.5,-207.7 266.5,-229.7 358.5,-229.7 358.5,-207.7 266.5,-207.7"/>
<text text-anchor="start" x="269.5" y="-215.4" font-family="Helvetica,sans-Serif" font-size="11.00" fill="#000000">serial[10]</text>
<polygon fill="none" stroke="#000000" points="155.5,-185.7 155.5,-207.7 266.5,-207.7 266.5,-185.7 155.5,-185.7"/>
<text text-anchor="start" x="175.5" y="-192.8" font-family="Helvetica,sans-Serif" font-size="11.00" fill="#000000">name</text>
<polygon fill="none" stroke="#000000" points="266.5,-185.7 266.5,-207.7 358.5,-207.7 358.5,-185.7 266.5,-185.7"/>
<text text-anchor="start" x="269.5" y="-193.4" font-family="Helvetica,sans-Serif" font-size="11.00" fill="#000000">varchar[100]</text>
<polygon fill="#ffffff" stroke="transparent" points="155.5,-163.7 155.5,-185.7 266.5,-185.7 266.5,-163.7 155.5,-163.7"/>
<polygon fill="none" stroke="#000000" points="155.5,-163.7 155.5,-185.7 266.5,-185.7 266.5,-163.7 155.5,-163.7"/>
<text text-anchor="start" x="175.5" y="-170.8" font-family="Helvetica,sans-Serif" font-size="11.00" fill="#000000">real_url</text>
<polygon fill="none" stroke="#000000" points="266.5,-163.7 266.5,-185.7 358.5,-185.7 358.5,-163.7 266.5,-163.7"/>
<text text-anchor="start" x="269.5" y="-171.4" font-family="Helvetica,sans-Serif" font-size="11.00" fill="#000000">text[2147483647]</text>
<polygon fill="#ffffff" stroke="transparent" points="155.5,-141.7 155.5,-163.7 266.5,-163.7 266.5,-141.7 155.5,-141.7"/>
<polygon fill="none" stroke="#000000" points="155.5,-141.7 155.5,-163.7 266.5,-163.7 266.5,-141.7 155.5,-141.7"/>
<text text-anchor="start" x="175.5" y="-148.8" font-family="Helvetica,sans-Serif" font-size="11.00" fill="#000000">generated_alias</text>
<polygon fill="none" stroke="#000000" points="266.5,-141.7 266.5,-163.7 358.5,-163.7 358.5,-141.7 266.5,-141.7"/>
<text text-anchor="start" x="269.5" y="-149.4" font-family="Helvetica,sans-Serif" font-size="11.00" fill="#000000">varchar[150]</text>
<polygon fill="none" stroke="#000000" points="155.5,-119.7 155.5,-141.7 266.5,-141.7 266.5,-119.7 155.5,-119.7"/>
<text text-anchor="start" x="175.5" y="-126.8" font-family="Helvetica,sans-Serif" font-size="11.00" fill="#000000">created_at</text>
<polygon fill="none" stroke="#000000" points="266.5,-119.7 266.5,-141.7 358.5,-141.7 358.5,-119.7 266.5,-119.7"/>
<text text-anchor="start" x="269.1023" y="-127.4" font-family="Helvetica,sans-Serif" font-size="11.00" fill="#000000">timestamptz[35,6]</text>
<polygon fill="none" stroke="#000000" points="155.5,-97.7 155.5,-119.7 266.5,-119.7 266.5,-97.7 155.5,-97.7"/>
<ellipse fill="#a3a3a3" stroke="#a3a3a3" rx="3.2" ry="3.2" cx="160.5" cy="-114.7"/>
<text text-anchor="start" x="175.5" y="-104.8" font-family="Helvetica,sans-Serif" font-size="11.00" fill="#000000">user_id</text>
<polygon fill="none" stroke="#000000" points="266.5,-97.7 266.5,-119.7 358.5,-119.7 358.5,-97.7 266.5,-97.7"/>
<text text-anchor="start" x="269.5" y="-105.4" font-family="Helvetica,sans-Serif" font-size="11.00" fill="#000000">int4[10]</text>
<polygon fill="#ffffff" stroke="transparent" points="155.5,-78.7 155.5,-97.7 215.5,-97.7 215.5,-78.7 155.5,-78.7"/>
<polygon fill="none" stroke="#000000" points="155.5,-78.7 155.5,-97.7 215.5,-97.7 215.5,-78.7 155.5,-78.7"/>
<text text-anchor="start" x="158.5" y="-84.8" font-family="Helvetica,sans-Serif" font-size="11.00" fill="#000000">&lt; 1</text>
<polygon fill="#ffffff" stroke="transparent" points="215.5,-78.7 215.5,-97.7 266.5,-97.7 266.5,-78.7 215.5,-78.7"/>
<polygon fill="none" stroke="#000000" points="215.5,-78.7 215.5,-97.7 266.5,-97.7 266.5,-78.7 215.5,-78.7"/>
<text text-anchor="start" x="257.3862" y="-84.8" font-family="Helvetica,sans-Serif" font-size="11.00" fill="#000000"> &#160;</text>
<polygon fill="#ffffff" stroke="transparent" points="266.5,-78.7 266.5,-97.7 358.5,-97.7 358.5,-78.7 266.5,-78.7"/>
<polygon fill="none" stroke="#000000" points="266.5,-78.7 266.5,-97.7 358.5,-97.7 358.5,-78.7 266.5,-78.7"/>
<text text-anchor="start" x="339.9053" y="-84.8" font-family="Helvetica,sans-Serif" font-size="11.00" fill="#000000">0 &gt;</text>
<polygon fill="none" stroke="#000000" stroke-width="2" points="154,-77.7 154,-253.7 359,-253.7 359,-77.7 154,-77.7"/>
</a>
</g>
</g>
<!-- user -->
<g id="node2" class="node">
<title>user</title>
<g id="a_node2"><a xlink:href="../../tables/user.html" xlink:title="user" target="_top">
<polygon fill="#ffffff" stroke="transparent" points="8,-38.2 8,-143.2 104,-143.2 104,-38.2 8,-38.2"/>
<polygon fill="#f5f5f5" stroke="transparent" points="8,-119.7 8,-142.7 104,-142.7 104,-119.7 8,-119.7"/>
<polygon fill="none" stroke="#000000" points="8,-119.7 8,-142.7 104,-142.7 104,-119.7 8,-119.7"/>
<text text-anchor="start" x="12.8042" y="-128.3" font-family="Helvetica,sans-Serif" font-weight="bold" font-size="11.00" fill="#000000">user</text>
<text text-anchor="start" x="69.0437" y="-127.8" font-family="Helvetica,sans-Serif" font-size="11.00" fill="#000000">[table]</text>
<polygon fill="none" stroke="#000000" points="8,-97.7 8,-119.7 104,-119.7 104,-97.7 8,-97.7"/>
<ellipse fill="#ede739" stroke="#ede739" rx="3.2" ry="3.2" cx="13" cy="-114.7"/>
<text text-anchor="start" x="28" y="-104.8" font-family="Helvetica,sans-Serif" font-size="11.00" fill="#000000">id</text>
<polygon fill="#ffffff" stroke="transparent" points="8,-75.7 8,-97.7 104,-97.7 104,-75.7 8,-75.7"/>
<polygon fill="none" stroke="#000000" points="8,-75.7 8,-97.7 104,-97.7 104,-75.7 8,-75.7"/>
<text text-anchor="start" x="28" y="-82.8" font-family="Helvetica,sans-Serif" font-size="11.00" fill="#000000">email</text>
<polygon fill="none" stroke="#000000" points="8,-56.7 8,-75.7 104,-75.7 104,-56.7 8,-56.7"/>
<text text-anchor="start" x="11" y="-62.8" font-family="Helvetica,sans-Serif" font-size="11.00" fill="#000000">...</text>
<polygon fill="#ffffff" stroke="transparent" points="8,-37.7 8,-56.7 45,-56.7 45,-37.7 8,-37.7"/>
<polygon fill="none" stroke="#000000" points="8,-37.7 8,-56.7 45,-56.7 45,-37.7 8,-37.7"/>
<text text-anchor="start" x="11" y="-43.8" font-family="Helvetica,sans-Serif" font-size="11.00" fill="#000000"> &#160;</text>
<polygon fill="#ffffff" stroke="transparent" points="45,-37.7 45,-56.7 70,-56.7 70,-37.7 45,-37.7"/>
<polygon fill="none" stroke="#000000" points="45,-37.7 45,-56.7 70,-56.7 70,-37.7 45,-37.7"/>
<text text-anchor="start" x="60.8862" y="-43.8" font-family="Helvetica,sans-Serif" font-size="11.00" fill="#000000"> &#160;</text>
<polygon fill="#ffffff" stroke="transparent" points="70,-37.7 70,-56.7 104,-56.7 104,-37.7 70,-37.7"/>
<polygon fill="none" stroke="#000000" points="70,-37.7 70,-56.7 104,-56.7 104,-37.7 70,-37.7"/>
<text text-anchor="start" x="85.4053" y="-43.8" font-family="Helvetica,sans-Serif" font-size="11.00" fill="#000000">1 &gt;</text>
</a>
</g>
</g>
<!-- link&#45;&gt;user -->
<g id="edge1" class="edge">
<title>link:w&#45;&gt;user:e</title>
<path fill="none" stroke="#000000" d="M141.0156,-108.7C128.6771,-108.7 121.1667,-108.7 104,-108.7"/>
<polygon fill="#000000" stroke="#000000" points="147.5,-108.7001 155.5,-112.3 151.5,-108.7 155.5,-108.7 155.5,-108.7 155.5,-108.7 151.5,-108.7 155.5,-105.1 147.5,-108.7001 147.5,-108.7001"/>
<ellipse fill="none" stroke="#000000" cx="144.3" cy="-108.7001" rx="3.2" ry="3.2"/>
</g>
</g>
</svg>
