<?xml version="1.0" encoding="UTF-8" standalone="no"?>
<!DOCTYPE svg PUBLIC "-//W3C//DTD SVG 1.1//EN"
 "http://www.w3.org/Graphics/SVG/1.1/DTD/svg11.dtd">
<!-- Generated by graphviz version 2.40.1 (20161225.0304)
 -->
<!-- Title: oneDegreeRelationshipsDiagram Pages: 1 -->
<svg width="376pt" height="271pt"
 viewBox="0.00 0.00 376.00 270.70" xmlns="http://www.w3.org/2000/svg" xmlns:xlink="http://www.w3.org/1999/xlink">
<g id="graph0" class="graph" transform="scale(1 1) rotate(0) translate(4 266.7)">
<title>oneDegreeRelationshipsDiagram</title>
<polygon fill="#ffffff" stroke="transparent" points="-4,4 -4,-266.7 372,-266.7 372,4 -4,4"/>
<text text-anchor="middle" x="72.4936" y="-7.3" font-family="Helvetica,sans-Serif" font-size="11.00" fill="#000000">Generated by SchemaSpy</text>
<!-- link -->
<g id="node1" class="node">
<title>link</title>
<g id="a_node1"><a xlink:href="../../tables/link.html" xlink:title="link" target="_top">
<polygon fill="#ffffff" stroke="transparent" points="249,-109.7 249,-258.7 360,-258.7 360,-109.7 249,-109.7"/>
<polygon fill="#f5f5f5" stroke="transparent" points="249.5,-235.2 249.5,-258.2 360.5,-258.2 360.5,-235.2 249.5,-235.2"/>
<polygon fill="none" stroke="#000000" points="249.5,-235.2 249.5,-258.2 360.5,-258.2 360.5,-235.2 249.5,-235.2"/>
<text text-anchor="start" x="254.2517" y="-243.8" font-family="Helvetica,sans-Serif" font-weight="bold" font-size="11.00" fill="#000000">link</text>
<text text-anchor="start" x="325.5437" y="-243.3" font-family="Helvetica,sans-Serif" font-size="11.00" fill="#000000">[table]</text>
<polygon fill="none" stroke="#000000" points="249.5,-213.2 249.5,-235.2 360.5,-235.2 360.5,-213.2 249.5,-213.2"/>
<ellipse fill="#ede739" stroke="#ede739" rx="3.2" ry="3.2" cx="254.5" cy="-230.2"/>
<text text-anchor="start" x="269.5" y="-220.3" font-family="Helvetica,sans-Serif" font-size="11.00" fill="#000000">id</text>
<polygon fill="#ffffff" stroke="transparent" points="249.5,-191.2 249.5,-213.2 360.5,-213.2 360.5,-191.2 249.5,-191.2"/>
<polygon fill="none" stroke="#000000" points="249.5,-191.2 249.5,-213.2 360.5,-213.2 360.5,-191.2 249.5,-191.2"/>
<text text-anchor="start" x="269.5" y="-198.3" font-family="Helvetica,sans-Serif" font-size="11.00" fill="#000000">real_url</text>
<polygon fill="#ffffff" stroke="transparent" points="249.5,-169.2 249.5,-191.2 360.5,-191.2 360.5,-169.2 249.5,-169.2"/>
<polygon fill="none" stroke="#000000" points="249.5,-169.2 249.5,-191.2 360.5,-191.2 360.5,-169.2 249.5,-169.2"/>
<text text-anchor="start" x="269.5" y="-176.3" font-family="Helvetica,sans-Serif" font-size="11.00" fill="#000000">generated_alias</text>
<polygon fill="none" stroke="#000000" points="249.5,-147.2 249.5,-169.2 360.5,-169.2 360.5,-147.2 249.5,-147.2"/>
<ellipse fill="#a3a3a3" stroke="#a3a3a3" rx="3.2" ry="3.2" cx="254.5" cy="-164.2"/>
<text text-anchor="start" x="269.5" y="-154.3" font-family="Helvetica,sans-Serif" font-size="11.00" fill="#000000">user_id</text>
<polygon fill="none" stroke="#000000" points="249.5,-128.2 249.5,-147.2 360.5,-147.2 360.5,-128.2 249.5,-128.2"/>
<text text-anchor="start" x="252.5" y="-134.3" font-family="Helvetica,sans-Serif" font-size="11.00" fill="#000000">...</text>
<polygon fill="#ffffff" stroke="transparent" points="249.5,-109.2 249.5,-128.2 303.5,-128.2 303.5,-109.2 249.5,-109.2"/>
<polygon fill="none" stroke="#000000" points="249.5,-109.2 249.5,-128.2 303.5,-128.2 303.5,-109.2 249.5,-109.2"/>
<text text-anchor="start" x="252.5" y="-115.3" font-family="Helvetica,sans-Serif" font-size="11.00" fill="#000000">&lt; 1</text>
<polygon fill="#ffffff" stroke="transparent" points="303.5,-109.2 303.5,-128.2 331.5,-128.2 331.5,-109.2 303.5,-109.2"/>
<polygon fill="none" stroke="#000000" points="303.5,-109.2 303.5,-128.2 331.5,-128.2 331.5,-109.2 303.5,-109.2"/>
<text text-anchor="start" x="322.3862" y="-115.3" font-family="Helvetica,sans-Serif" font-size="11.00" fill="#000000"> &#160;</text>
<polygon fill="#ffffff" stroke="transparent" points="331.5,-109.2 331.5,-128.2 360.5,-128.2 360.5,-109.2 331.5,-109.2"/>
<polygon fill="none" stroke="#000000" points="331.5,-109.2 331.5,-128.2 360.5,-128.2 360.5,-109.2 331.5,-109.2"/>
<text text-anchor="start" x="351.3862" y="-115.3" font-family="Helvetica,sans-Serif" font-size="11.00" fill="#000000"> &#160;</text>
</a>
</g>
</g>
<!-- user -->
<g id="node2" class="node">
<title>user</title>
<g id="a_node2"><a xlink:href="../../tables/user.html" xlink:title="user" target="_top">
<polygon fill="#ffffff" stroke="transparent" points="8,-38.2 8,-194.2 200,-194.2 200,-38.2 8,-38.2"/>
<polygon fill="#f5f5f5" stroke="transparent" points="10,-169.2 10,-192.2 198,-192.2 198,-169.2 10,-169.2"/>
<polygon fill="none" stroke="#000000" points="10,-169.2 10,-192.2 198,-192.2 198,-169.2 10,-169.2"/>
<text text-anchor="start" x="14.8042" y="-177.8" font-family="Helvetica,sans-Serif" font-weight="bold" font-size="11.00" fill="#000000">user</text>
<text text-anchor="start" x="163.0437" y="-177.3" font-family="Helvetica,sans-Serif" font-size="11.00" fill="#000000">[table]</text>
<polygon fill="none" stroke="#000000" points="10,-147.2 10,-169.2 106,-169.2 106,-147.2 10,-147.2"/>
<ellipse fill="#ede739" stroke="#ede739" rx="3.2" ry="3.2" cx="15" cy="-164.2"/>
<text text-anchor="start" x="30" y="-154.3" font-family="Helvetica,sans-Serif" font-size="11.00" fill="#000000">id</text>
<polygon fill="none" stroke="#000000" points="106,-147.2 106,-169.2 198,-169.2 198,-147.2 106,-147.2"/>
<text text-anchor="start" x="109" y="-154.9" font-family="Helvetica,sans-Serif" font-size="11.00" fill="#000000">serial[10]</text>
<polygon fill="#ffffff" stroke="transparent" points="10,-125.2 10,-147.2 106,-147.2 106,-125.2 10,-125.2"/>
<polygon fill="none" stroke="#000000" points="10,-125.2 10,-147.2 106,-147.2 106,-125.2 10,-125.2"/>
<text text-anchor="start" x="30" y="-132.3" font-family="Helvetica,sans-Serif" font-size="11.00" fill="#000000">email</text>
<polygon fill="none" stroke="#000000" points="106,-125.2 106,-147.2 198,-147.2 198,-125.2 106,-125.2"/>
<text text-anchor="start" x="109" y="-132.9" font-family="Helvetica,sans-Serif" font-size="11.00" fill="#000000">varchar[150]</text>
<polygon fill="none" stroke="#000000" points="10,-103.2 10,-125.2 106,-125.2 106,-103.2 10,-103.2"/>
<text text-anchor="start" x="30" y="-110.3" font-family="Helvetica,sans-Serif" font-size="11.00" fill="#000000">password</text>
<polygon fill="none" stroke="#000000" points="106,-103.2 106,-125.2 198,-125.2 198,-103.2 106,-103.2"/>
<text text-anchor="start" x="109" y="-110.9" font-family="Helvetica,sans-Serif" font-size="11.00" fill="#000000">varchar[255]</text>
<polygon fill="none" stroke="#000000" points="10,-81.2 10,-103.2 106,-103.2 106,-81.2 10,-81.2"/>
<text text-anchor="start" x="30" y="-88.3" font-family="Helvetica,sans-Serif" font-size="11.00" fill="#000000">role</text>
<polygon fill="none" stroke="#000000" points="106,-81.2 106,-103.2 198,-103.2 198,-81.2 106,-81.2"/>
<text text-anchor="start" x="109" y="-88.9" font-family="Helvetica,sans-Serif" font-size="11.00" fill="#000000">varchar[20]</text>
<polygon fill="none" stroke="#000000" points="10,-59.2 10,-81.2 106,-81.2 106,-59.2 10,-59.2"/>
<text text-anchor="start" x="30" y="-66.3" font-family="Helvetica,sans-Serif" font-size="11.00" fill="#000000">registered_at</text>
<polygon fill="none" stroke="#000000" points="106,-59.2 106,-81.2 198,-81.2 198,-59.2 106,-59.2"/>
<text text-anchor="start" x="108.6023" y="-66.9" font-family="Helvetica,sans-Serif" font-size="11.00" fill="#000000">timestamptz[35,6]</text>
<polygon fill="#ffffff" stroke="transparent" points="10,-40.2 10,-59.2 62,-59.2 62,-40.2 10,-40.2"/>
<polygon fill="none" stroke="#000000" points="10,-40.2 10,-59.2 62,-59.2 62,-40.2 10,-40.2"/>
<text text-anchor="start" x="13" y="-46.3" font-family="Helvetica,sans-Serif" font-size="11.00" fill="#000000">&lt; 0</text>
<polygon fill="#ffffff" stroke="transparent" points="62,-40.2 62,-59.2 106,-59.2 106,-40.2 62,-40.2"/>
<polygon fill="none" stroke="#000000" points="62,-40.2 62,-59.2 106,-59.2 106,-40.2 62,-40.2"/>
<text text-anchor="start" x="96.8862" y="-46.3" font-family="Helvetica,sans-Serif" font-size="11.00" fill="#000000"> &#160;</text>
<polygon fill="#ffffff" stroke="transparent" points="106,-40.2 106,-59.2 198,-59.2 198,-40.2 106,-40.2"/>
<polygon fill="none" stroke="#000000" points="106,-40.2 106,-59.2 198,-59.2 198,-40.2 106,-40.2"/>
<text text-anchor="start" x="179.4053" y="-46.3" font-family="Helvetica,sans-Serif" font-size="11.00" fill="#000000">1 &gt;</text>
<polygon fill="none" stroke="#000000" stroke-width="2" points="9,-39.2 9,-193.2 199,-193.2 199,-39.2 9,-39.2"/>
</a>
</g>
</g>
<!-- link&#45;&gt;user -->
<g id="edge1" class="edge">
<title>link:w&#45;&gt;user:e</title>
<path fill="none" stroke="#000000" d="M235.0156,-158.2C222.6771,-158.2 215.1667,-158.2 198,-158.2"/>
<polygon fill="#000000" stroke="#000000" points="241.5,-158.2001 249.5,-161.8 245.5,-158.2 249.5,-158.2 249.5,-158.2 249.5,-158.2 245.5,-158.2 249.5,-154.6 241.5,-158.2001 241.5,-158.2001"/>
<ellipse fill="none" stroke="#000000" cx="238.3" cy="-158.2001" rx="3.2" ry="3.2"/>
</g>
</g>
</svg>
