<?xml version="1.0" encoding="UTF-8" standalone="no"?>
<!DOCTYPE svg PUBLIC "-//W3C//DTD SVG 1.1//EN"
 "http://www.w3.org/Graphics/SVG/1.1/DTD/svg11.dtd">
<!-- Generated by graphviz version 2.40.1 (20161225.0304)
 -->
<!-- Title: largeRelationshipsDiagram Pages: 1 -->
<svg width="280pt" height="312pt"
 viewBox="0.00 0.00 280.00 312.20" xmlns="http://www.w3.org/2000/svg" xmlns:xlink="http://www.w3.org/1999/xlink">
<g id="graph0" class="graph" transform="scale(1 1) rotate(0) translate(4 308.2)">
<title>largeRelationshipsDiagram</title>
<polygon fill="#ffffff" stroke="transparent" points="-4,4 -4,-308.2 276,-308.2 276,4 -4,4"/>
<text text-anchor="middle" x="72.4936" y="-7.3" font-family="Helvetica,sans-Serif" font-size="11.00" fill="#000000">Generated by SchemaSpy</text>
<!-- link -->
<g id="node1" class="node">
<title>link</title>
<g id="a_node1"><a xlink:href="../../tables/link.html" xlink:title="link" target="_top">
<polygon fill="#ffffff" stroke="transparent" points="153,-126.2 153,-300.2 264,-300.2 264,-126.2 153,-126.2"/>
<polygon fill="#f5f5f5" stroke="transparent" points="153.5,-277.2 153.5,-300.2 264.5,-300.2 264.5,-277.2 153.5,-277.2"/>
<polygon fill="none" stroke="#000000" points="153.5,-277.2 153.5,-300.2 264.5,-300.2 264.5,-277.2 153.5,-277.2"/>
<text text-anchor="start" x="158.2517" y="-285.8" font-family="Helvetica,sans-Serif" font-weight="bold" font-size="11.00" fill="#000000">link</text>
<text text-anchor="start" x="229.5437" y="-285.3" font-family="Helvetica,sans-Serif" font-size="11.00" fill="#000000">[table]</text>
<polygon fill="none" stroke="#000000" points="153.5,-255.2 153.5,-277.2 264.5,-277.2 264.5,-255.2 153.5,-255.2"/>
<ellipse fill="#ede739" stroke="#ede739" rx="3.2" ry="3.2" cx="158.5" cy="-272.2"/>
<text text-anchor="start" x="173.5" y="-262.3" font-family="Helvetica,sans-Serif" font-size="11.00" fill="#000000">id</text>
<polygon fill="none" stroke="#000000" points="153.5,-233.2 153.5,-255.2 264.5,-255.2 264.5,-233.2 153.5,-233.2"/>
<text text-anchor="start" x="173.5" y="-240.3" font-family="Helvetica,sans-Serif" font-size="11.00" fill="#000000">name</text>
<polygon fill="#ffffff" stroke="transparent" points="153.5,-211.2 153.5,-233.2 264.5,-233.2 264.5,-211.2 153.5,-211.2"/>
<polygon fill="none" stroke="#000000" points="153.5,-211.2 153.5,-233.2 264.5,-233.2 264.5,-211.2 153.5,-211.2"/>
<text text-anchor="start" x="173.5" y="-218.3" font-family="Helvetica,sans-Serif" font-size="11.00" fill="#000000">real_url</text>
<polygon fill="#ffffff" stroke="transparent" points="153.5,-189.2 153.5,-211.2 264.5,-211.2 264.5,-189.2 153.5,-189.2"/>
<polygon fill="none" stroke="#000000" points="153.5,-189.2 153.5,-211.2 264.5,-211.2 264.5,-189.2 153.5,-189.2"/>
<text text-anchor="start" x="173.5" y="-196.3" font-family="Helvetica,sans-Serif" font-size="11.00" fill="#000000">generated_alias</text>
<polygon fill="none" stroke="#000000" points="153.5,-167.2 153.5,-189.2 264.5,-189.2 264.5,-167.2 153.5,-167.2"/>
<text text-anchor="start" x="173.5" y="-174.3" font-family="Helvetica,sans-Serif" font-size="11.00" fill="#000000">created_at</text>
<polygon fill="none" stroke="#000000" points="153.5,-145.2 153.5,-167.2 264.5,-167.2 264.5,-145.2 153.5,-145.2"/>
<ellipse fill="#a3a3a3" stroke="#a3a3a3" rx="3.2" ry="3.2" cx="158.5" cy="-162.2"/>
<text text-anchor="start" x="173.5" y="-152.3" font-family="Helvetica,sans-Serif" font-size="11.00" fill="#000000">user_id</text>
<polygon fill="#ffffff" stroke="transparent" points="153.5,-126.2 153.5,-145.2 207.5,-145.2 207.5,-126.2 153.5,-126.2"/>
<polygon fill="none" stroke="#000000" points="153.5,-126.2 153.5,-145.2 207.5,-145.2 207.5,-126.2 153.5,-126.2"/>
<text text-anchor="start" x="156.5" y="-132.3" font-family="Helvetica,sans-Serif" font-size="11.00" fill="#000000">&lt; 1</text>
<polygon fill="#ffffff" stroke="transparent" points="207.5,-126.2 207.5,-145.2 235.5,-145.2 235.5,-126.2 207.5,-126.2"/>
<polygon fill="none" stroke="#000000" points="207.5,-126.2 207.5,-145.2 235.5,-145.2 235.5,-126.2 207.5,-126.2"/>
<text text-anchor="start" x="226.3862" y="-132.3" font-family="Helvetica,sans-Serif" font-size="11.00" fill="#000000"> &#160;</text>
<polygon fill="#ffffff" stroke="transparent" points="235.5,-126.2 235.5,-145.2 264.5,-145.2 264.5,-126.2 235.5,-126.2"/>
<polygon fill="none" stroke="#000000" points="235.5,-126.2 235.5,-145.2 264.5,-145.2 264.5,-126.2 235.5,-126.2"/>
<text text-anchor="start" x="255.3862" y="-132.3" font-family="Helvetica,sans-Serif" font-size="11.00" fill="#000000"> &#160;</text>
</a>
</g>
</g>
<!-- user -->
<g id="node2" class="node">
<title>user</title>
<g id="a_node2"><a xlink:href="../../tables/user.html" xlink:title="user" target="_top">
<polygon fill="#ffffff" stroke="transparent" points="8,-38.2 8,-190.2 104,-190.2 104,-38.2 8,-38.2"/>
<polygon fill="#f5f5f5" stroke="transparent" points="8,-167.2 8,-190.2 104,-190.2 104,-167.2 8,-167.2"/>
<polygon fill="none" stroke="#000000" points="8,-167.2 8,-190.2 104,-190.2 104,-167.2 8,-167.2"/>
<text text-anchor="start" x="12.8042" y="-175.8" font-family="Helvetica,sans-Serif" font-weight="bold" font-size="11.00" fill="#000000">user</text>
<text text-anchor="start" x="69.0437" y="-175.3" font-family="Helvetica,sans-Serif" font-size="11.00" fill="#000000">[table]</text>
<polygon fill="none" stroke="#000000" points="8,-145.2 8,-167.2 104,-167.2 104,-145.2 8,-145.2"/>
<ellipse fill="#ede739" stroke="#ede739" rx="3.2" ry="3.2" cx="13" cy="-162.2"/>
<text text-anchor="start" x="28" y="-152.3" font-family="Helvetica,sans-Serif" font-size="11.00" fill="#000000">id</text>
<polygon fill="#ffffff" stroke="transparent" points="8,-123.2 8,-145.2 104,-145.2 104,-123.2 8,-123.2"/>
<polygon fill="none" stroke="#000000" points="8,-123.2 8,-145.2 104,-145.2 104,-123.2 8,-123.2"/>
<text text-anchor="start" x="28" y="-130.3" font-family="Helvetica,sans-Serif" font-size="11.00" fill="#000000">email</text>
<polygon fill="none" stroke="#000000" points="8,-101.2 8,-123.2 104,-123.2 104,-101.2 8,-101.2"/>
<text text-anchor="start" x="28" y="-108.3" font-family="Helvetica,sans-Serif" font-size="11.00" fill="#000000">password</text>
<polygon fill="none" stroke="#000000" points="8,-79.2 8,-101.2 104,-101.2 104,-79.2 8,-79.2"/>
<text text-anchor="start" x="28" y="-86.3" font-family="Helvetica,sans-Serif" font-size="11.00" fill="#000000">role</text>
<polygon fill="none" stroke="#000000" points="8,-57.2 8,-79.2 104,-79.2 104,-57.2 8,-57.2"/>
<text text-anchor="start" x="28" y="-64.3" font-family="Helvetica,sans-Serif" font-size="11.00" fill="#000000">registered_at</text>
<polygon fill="#ffffff" stroke="transparent" points="8,-38.2 8,-57.2 45,-57.2 45,-38.2 8,-38.2"/>
<polygon fill="none" stroke="#000000" points="8,-38.2 8,-57.2 45,-57.2 45,-38.2 8,-38.2"/>
<text text-anchor="start" x="11" y="-44.3" font-family="Helvetica,sans-Serif" font-size="11.00" fill="#000000"> &#160;</text>
<polygon fill="#ffffff" stroke="transparent" points="45,-38.2 45,-57.2 70,-57.2 70,-38.2 45,-38.2"/>
<polygon fill="none" stroke="#000000" points="45,-38.2 45,-57.2 70,-57.2 70,-38.2 45,-38.2"/>
<text text-anchor="start" x="60.8862" y="-44.3" font-family="Helvetica,sans-Serif" font-size="11.00" fill="#000000"> &#160;</text>
<polygon fill="#ffffff" stroke="transparent" points="70,-38.2 70,-57.2 104,-57.2 104,-38.2 70,-38.2"/>
<polygon fill="none" stroke="#000000" points="70,-38.2 70,-57.2 104,-57.2 104,-38.2 70,-38.2"/>
<text text-anchor="start" x="85.4053" y="-44.3" font-family="Helvetica,sans-Serif" font-size="11.00" fill="#000000">1 &gt;</text>
</a>
</g>
</g>
<!-- link&#45;&gt;user -->
<g id="edge1" class="edge">
<title>link:w&#45;&gt;user:e</title>
<path fill="none" stroke="#000000" d="M138.8428,-156.2C127.4139,-156.2 120.1563,-156.2 104,-156.2"/>
<polygon fill="#000000" stroke="#000000" points="145.5,-156.2001 153.5,-159.8 149.5,-156.2 153.5,-156.2 153.5,-156.2 153.5,-156.2 149.5,-156.2 153.5,-152.6 145.5,-156.2001 145.5,-156.2001"/>
<ellipse fill="none" stroke="#000000" cx="142.3" cy="-156.2001" rx="3.2" ry="3.2"/>
</g>
</g>
</svg>
