<?xml version="1.0" encoding="UTF-8" standalone="no"?>
<!DOCTYPE svg PUBLIC "-//W3C//DTD SVG 1.1//EN"
 "http://www.w3.org/Graphics/SVG/1.1/DTD/svg11.dtd">
<!-- Generated by graphviz version 2.40.1 (20161225.0304)
 -->
<!-- Title: compactRelationshipsDiagram Pages: 1 -->
<svg width="280pt" height="221pt"
 viewBox="0.00 0.00 280.00 221.20" xmlns="http://www.w3.org/2000/svg" xmlns:xlink="http://www.w3.org/1999/xlink">
<g id="graph0" class="graph" transform="scale(1 1) rotate(0) translate(4 217.2)">
<title>compactRelationshipsDiagram</title>
<polygon fill="#ffffff" stroke="transparent" points="-4,4 -4,-217.2 276,-217.2 276,4 -4,4"/>
<text text-anchor="middle" x="72.4936" y="-7.3" font-family="Helvetica,sans-Serif" font-size="11.00" fill="#000000">Generated by SchemaSpy</text>
<!-- link -->
<g id="node1" class="node">
<title>link</title>
<g id="a_node1"><a xlink:href="../../tables/link.html" xlink:title="link" target="_top">
<polygon fill="#ffffff" stroke="transparent" points="153,-60.2 153,-209.2 264,-209.2 264,-60.2 153,-60.2"/>
<polygon fill="#f5f5f5" stroke="transparent" points="153.5,-185.7 153.5,-208.7 264.5,-208.7 264.5,-185.7 153.5,-185.7"/>
<polygon fill="none" stroke="#000000" points="153.5,-185.7 153.5,-208.7 264.5,-208.7 264.5,-185.7 153.5,-185.7"/>
<text text-anchor="start" x="158.2517" y="-194.3" font-family="Helvetica,sans-Serif" font-weight="bold" font-size="11.00" fill="#000000">link</text>
<text text-anchor="start" x="229.5437" y="-193.8" font-family="Helvetica,sans-Serif" font-size="11.00" fill="#000000">[table]</text>
<polygon fill="none" stroke="#000000" points="153.5,-163.7 153.5,-185.7 264.5,-185.7 264.5,-163.7 153.5,-163.7"/>
<ellipse fill="#ede739" stroke="#ede739" rx="3.2" ry="3.2" cx="158.5" cy="-180.7"/>
<text text-anchor="start" x="173.5" y="-170.8" font-family="Helvetica,sans-Serif" font-size="11.00" fill="#000000">id</text>
<polygon fill="#ffffff" stroke="transparent" points="153.5,-141.7 153.5,-163.7 264.5,-163.7 264.5,-141.7 153.5,-141.7"/>
<polygon fill="none" stroke="#000000" points="153.5,-141.7 153.5,-163.7 264.5,-163.7 264.5,-141.7 153.5,-141.7"/>
<text text-anchor="start" x="173.5" y="-148.8" font-family="Helvetica,sans-Serif" font-size="11.00" fill="#000000">real_url</text>
<polygon fill="#ffffff" stroke="transparent" points="153.5,-119.7 153.5,-141.7 264.5,-141.7 264.5,-119.7 153.5,-119.7"/>
<polygon fill="none" stroke="#000000" points="153.5,-119.7 153.5,-141.7 264.5,-141.7 264.5,-119.7 153.5,-119.7"/>
<text text-anchor="start" x="173.5" y="-126.8" font-family="Helvetica,sans-Serif" font-size="11.00" fill="#000000">generated_alias</text>
<polygon fill="none" stroke="#000000" points="153.5,-97.7 153.5,-119.7 264.5,-119.7 264.5,-97.7 153.5,-97.7"/>
<ellipse fill="#a3a3a3" stroke="#a3a3a3" rx="3.2" ry="3.2" cx="158.5" cy="-114.7"/>
<text text-anchor="start" x="173.5" y="-104.8" font-family="Helvetica,sans-Serif" font-size="11.00" fill="#000000">user_id</text>
<polygon fill="none" stroke="#000000" points="153.5,-78.7 153.5,-97.7 264.5,-97.7 264.5,-78.7 153.5,-78.7"/>
<text text-anchor="start" x="156.5" y="-84.8" font-family="Helvetica,sans-Serif" font-size="11.00" fill="#000000">...</text>
<polygon fill="#ffffff" stroke="transparent" points="153.5,-59.7 153.5,-78.7 207.5,-78.7 207.5,-59.7 153.5,-59.7"/>
<polygon fill="none" stroke="#000000" points="153.5,-59.7 153.5,-78.7 207.5,-78.7 207.5,-59.7 153.5,-59.7"/>
<text text-anchor="start" x="156.5" y="-65.8" font-family="Helvetica,sans-Serif" font-size="11.00" fill="#000000">&lt; 1</text>
<polygon fill="#ffffff" stroke="transparent" points="207.5,-59.7 207.5,-78.7 235.5,-78.7 235.5,-59.7 207.5,-59.7"/>
<polygon fill="none" stroke="#000000" points="207.5,-59.7 207.5,-78.7 235.5,-78.7 235.5,-59.7 207.5,-59.7"/>
<text text-anchor="start" x="226.3862" y="-65.8" font-family="Helvetica,sans-Serif" font-size="11.00" fill="#000000"> &#160;</text>
<polygon fill="#ffffff" stroke="transparent" points="235.5,-59.7 235.5,-78.7 264.5,-78.7 264.5,-59.7 235.5,-59.7"/>
<polygon fill="none" stroke="#000000" points="235.5,-59.7 235.5,-78.7 264.5,-78.7 264.5,-59.7 235.5,-59.7"/>
<text text-anchor="start" x="255.3862" y="-65.8" font-family="Helvetica,sans-Serif" font-size="11.00" fill="#000000"> &#160;</text>
</a>
</g>
</g>
<!-- user -->
<g id="node2" class="node">
<title>user</title>
<g id="a_node2"><a xlink:href="../../tables/user.html" xlink:title="user" target="_top">
<polygon fill="#ffffff" stroke="transparent" points="8,-38.2 8,-143.2 104,-143.2 104,-38.2 8,-38.2"/>
<polygon fill="#f5f5f5" stroke="transparent" points="8,-119.7 8,-142.7 104,-142.7 104,-119.7 8,-119.7"/>
<polygon fill="none" stroke="#000000" points="8,-119.7 8,-142.7 104,-142.7 104,-119.7 8,-119.7"/>
<text text-anchor="start" x="12.8042" y="-128.3" font-family="Helvetica,sans-Serif" font-weight="bold" font-size="11.00" fill="#000000">user</text>
<text text-anchor="start" x="69.0437" y="-127.8" font-family="Helvetica,sans-Serif" font-size="11.00" fill="#000000">[table]</text>
<polygon fill="none" stroke="#000000" points="8,-97.7 8,-119.7 104,-119.7 104,-97.7 8,-97.7"/>
<ellipse fill="#ede739" stroke="#ede739" rx="3.2" ry="3.2" cx="13" cy="-114.7"/>
<text text-anchor="start" x="28" y="-104.8" font-family="Helvetica,sans-Serif" font-size="11.00" fill="#000000">id</text>
<polygon fill="#ffffff" stroke="transparent" points="8,-75.7 8,-97.7 104,-97.7 104,-75.7 8,-75.7"/>
<polygon fill="none" stroke="#000000" points="8,-75.7 8,-97.7 104,-97.7 104,-75.7 8,-75.7"/>
<text text-anchor="start" x="28" y="-82.8" font-family="Helvetica,sans-Serif" font-size="11.00" fill="#000000">email</text>
<polygon fill="none" stroke="#000000" points="8,-56.7 8,-75.7 104,-75.7 104,-56.7 8,-56.7"/>
<text text-anchor="start" x="11" y="-62.8" font-family="Helvetica,sans-Serif" font-size="11.00" fill="#000000">...</text>
<polygon fill="#ffffff" stroke="transparent" points="8,-37.7 8,-56.7 45,-56.7 45,-37.7 8,-37.7"/>
<polygon fill="none" stroke="#000000" points="8,-37.7 8,-56.7 45,-56.7 45,-37.7 8,-37.7"/>
<text text-anchor="start" x="11" y="-43.8" font-family="Helvetica,sans-Serif" font-size="11.00" fill="#000000"> &#160;</text>
<polygon fill="#ffffff" stroke="transparent" points="45,-37.7 45,-56.7 70,-56.7 70,-37.7 45,-37.7"/>
<polygon fill="none" stroke="#000000" points="45,-37.7 45,-56.7 70,-56.7 70,-37.7 45,-37.7"/>
<text text-anchor="start" x="60.8862" y="-43.8" font-family="Helvetica,sans-Serif" font-size="11.00" fill="#000000"> &#160;</text>
<polygon fill="#ffffff" stroke="transparent" points="70,-37.7 70,-56.7 104,-56.7 104,-37.7 70,-37.7"/>
<polygon fill="none" stroke="#000000" points="70,-37.7 70,-56.7 104,-56.7 104,-37.7 70,-37.7"/>
<text text-anchor="start" x="85.4053" y="-43.8" font-family="Helvetica,sans-Serif" font-size="11.00" fill="#000000">1 &gt;</text>
</a>
</g>
</g>
<!-- link&#45;&gt;user -->
<g id="edge1" class="edge">
<title>link:w&#45;&gt;user:e</title>
<path fill="none" stroke="#000000" d="M138.8428,-108.7C127.4139,-108.7 120.1563,-108.7 104,-108.7"/>
<polygon fill="#000000" stroke="#000000" points="145.5,-108.7001 153.5,-112.3 149.5,-108.7 153.5,-108.7 153.5,-108.7 153.5,-108.7 149.5,-108.7 153.5,-105.1 145.5,-108.7001 145.5,-108.7001"/>
<ellipse fill="none" stroke="#000000" cx="142.3" cy="-108.7001" rx="3.2" ry="3.2"/>
</g>
</g>
</svg>
