<?xml version="1.0" encoding="UTF-8" standalone="no"?>
<!DOCTYPE svg PUBLIC "-//W3C//DTD SVG 1.1//EN"
 "http://www.w3.org/Graphics/SVG/1.1/DTD/svg11.dtd">
<!-- Generated by graphviz version 2.40.1 (20161225.0304)
 -->
<!-- Title: orphans Pages: 1 -->
<svg width="239pt" height="150pt"
 viewBox="0.00 0.00 239.00 150.00" xmlns="http://www.w3.org/2000/svg" xmlns:xlink="http://www.w3.org/1999/xlink">
<g id="graph0" class="graph" transform="scale(1 1) rotate(0) translate(4 146)">
<title>orphans</title>
<polygon fill="#ffffff" stroke="transparent" points="-4,4 -4,-146 235,-146 235,4 -4,4"/>
<!-- goose_db_version -->
<g id="node1" class="node">
<title>goose_db_version</title>
<g id="a_node1"><a xlink:href="../../tables/goose_db_version.html" xlink:title="goose_db_version" target="_top">
<polygon fill="#ffffff" stroke="transparent" points="8,-4 8,-138 223,-138 223,-4 8,-4"/>
<polygon fill="#f5f5f5" stroke="transparent" points="10.5,-113 10.5,-136 221.5,-136 221.5,-113 10.5,-113"/>
<polygon fill="none" stroke="#000000" points="10.5,-113 10.5,-136 221.5,-136 221.5,-113 10.5,-113"/>
<text text-anchor="start" x="15.5" y="-121.6" font-family="Helvetica,sans-Serif" font-weight="bold" font-size="11.00" fill="#000000">goose_db_version</text>
<text text-anchor="start" x="186.5437" y="-121.1" font-family="Helvetica,sans-Serif" font-size="11.00" fill="#000000">[table]</text>
<polygon fill="none" stroke="#000000" points="10.5,-91 10.5,-113 137.5,-113 137.5,-91 10.5,-91"/>
<ellipse fill="#ede739" stroke="#ede739" rx="3.2" ry="3.2" cx="15.5" cy="-108"/>
<text text-anchor="start" x="30.5" y="-98.1" font-family="Helvetica,sans-Serif" font-size="11.00" fill="#000000">id</text>
<polygon fill="none" stroke="#000000" points="137.5,-91 137.5,-113 221.5,-113 221.5,-91 137.5,-91"/>
<text text-anchor="start" x="140.5" y="-98.7" font-family="Helvetica,sans-Serif" font-size="11.00" fill="#000000">serial[10]</text>
<polygon fill="none" stroke="#000000" points="10.5,-69 10.5,-91 137.5,-91 137.5,-69 10.5,-69"/>
<text text-anchor="start" x="30.5" y="-76.1" font-family="Helvetica,sans-Serif" font-size="11.00" fill="#000000">version_id</text>
<polygon fill="none" stroke="#000000" points="137.5,-69 137.5,-91 221.5,-91 221.5,-69 137.5,-69"/>
<text text-anchor="start" x="140.5" y="-76.7" font-family="Helvetica,sans-Serif" font-size="11.00" fill="#000000">int8[19]</text>
<polygon fill="none" stroke="#000000" points="10.5,-47 10.5,-69 137.5,-69 137.5,-47 10.5,-47"/>
<text text-anchor="start" x="30.5" y="-54.1" font-family="Helvetica,sans-Serif" font-size="11.00" fill="#000000">is_applied</text>
<polygon fill="none" stroke="#000000" points="137.5,-47 137.5,-69 221.5,-69 221.5,-47 137.5,-47"/>
<text text-anchor="start" x="140.5" y="-54.7" font-family="Helvetica,sans-Serif" font-size="11.00" fill="#000000">bool[1]</text>
<polygon fill="none" stroke="#000000" points="10.5,-25 10.5,-47 137.5,-47 137.5,-25 10.5,-25"/>
<text text-anchor="start" x="30.5" y="-32.1" font-family="Helvetica,sans-Serif" font-size="11.00" fill="#000000">tstamp</text>
<polygon fill="none" stroke="#000000" points="137.5,-25 137.5,-47 221.5,-47 221.5,-25 137.5,-25"/>
<text text-anchor="start" x="140.3807" y="-32.7" font-family="Helvetica,sans-Serif" font-size="11.00" fill="#000000">timestamp[29,6]</text>
<polygon fill="#ffffff" stroke="transparent" points="10.5,-6 10.5,-25 78.5,-25 78.5,-6 10.5,-6"/>
<polygon fill="none" stroke="#000000" points="10.5,-6 10.5,-25 78.5,-25 78.5,-6 10.5,-6"/>
<text text-anchor="start" x="13.5" y="-12.1" font-family="Helvetica,sans-Serif" font-size="11.00" fill="#000000">&lt; 0</text>
<polygon fill="#ffffff" stroke="transparent" points="78.5,-6 78.5,-25 137.5,-25 137.5,-6 78.5,-6"/>
<polygon fill="none" stroke="#000000" points="78.5,-6 78.5,-25 137.5,-25 137.5,-6 78.5,-6"/>
<text text-anchor="start" x="128.3862" y="-12.1" font-family="Helvetica,sans-Serif" font-size="11.00" fill="#000000"> &#160;</text>
<polygon fill="#ffffff" stroke="transparent" points="137.5,-6 137.5,-25 221.5,-25 221.5,-6 137.5,-6"/>
<polygon fill="none" stroke="#000000" points="137.5,-6 137.5,-25 221.5,-25 221.5,-6 137.5,-6"/>
<text text-anchor="start" x="202.9053" y="-12.1" font-family="Helvetica,sans-Serif" font-size="11.00" fill="#000000">0 &gt;</text>
<polygon fill="none" stroke="#000000" stroke-width="2" points="9,-5 9,-137 222,-137 222,-5 9,-5"/>
</a>
</g>
</g>
</g>
</svg>
